<?xml version="1.0" standalone="no"?>
<!DOCTYPE svg PUBLIC "-//W3C//DTD SVG 20010904//EN"
 "http://www.w3.org/TR/2001/REC-SVG-20010904/DTD/svg10.dtd">
<svg version="1.0" xmlns="http://www.w3.org/2000/svg"
 width="700.000000pt" height="700.000000pt" viewBox="0 0 700.000000 700.000000"
 preserveAspectRatio="xMidYMid meet">
<metadata>
Created by potrace 1.14, written by Peter Selinger 2001-2017
</metadata>
<g transform="translate(0.000000,700.000000) scale(0.100000,-0.100000)"
fill="#000000" stroke="none">
<path d="M3280 6994 c-19 -2 -84 -9 -145 -14 -639 -62 -1264 -315 -1795 -726
-149 -115 -481 -446 -595 -594 -410 -532 -653 -1132 -727 -1795 -17 -155 -17
-575 0 -730 75 -673 332 -1300 748 -1820 114 -143 339 -372 484 -494 537 -451
1163 -717 1885 -803 142 -17 586 -17 730 0 682 79 1268 318 1802 734 138 107
389 351 512 498 451 538 717 1162 803 1885 16 139 16 595 0 730 -77 629 -275
1158 -620 1649 -234 333 -577 668 -917 896 -460 308 -968 495 -1535 566 -117
15 -552 27 -630 18z m965 -1773 c50 -23 101 -79 115 -128 23 -84 79 -318 76
-320 -1 -2 -424 -2 -938 -1 l-936 3 34 140 c49 203 52 212 87 252 67 76 27 73
817 73 661 0 708 -2 745 -19z m291 -856 c35 -143 63 -263 64 -267 0 -5 -495
-8 -1100 -8 -605 0 -1100 2 -1100 4 0 6 120 509 125 524 4 10 204 12 976 10
l972 -3 63 -260z m161 -670 c34 -143 62 -266 63 -272 0 -10 -258 -13 -1260
-13 -805 0 -1260 3 -1260 10 0 10 118 507 125 528 3 10 236 12 1137 10 l1132
-3 63 -260z m179 -750 c44 -184 78 -337 76 -340 -9 -8 -2900 -6 -2905 3 -2 4
32 157 77 340 l80 332 1296 0 1296 0 80 -335z m123 -512 c20 -75 101 -423 101
-433 0 -7 -523 -10 -1600 -10 -1217 0 -1600 3 -1600 12 0 10 78 343 101 431
l10 37 1489 0 1489 0 10 -37z m371 -593 c18 -18 20 -33 20 -183 0 -154 -1
-165 -21 -183 -21 -19 -66 -19 -1869 -19 -1803 0 -1848 0 -1869 19 -20 18 -21
29 -21 183 0 150 2 165 20 183 20 20 33 20 1870 20 1837 0 1850 0 1870 -20z"/>
</g>
</svg>
